<mxfile host="app.diagrams.net" modified="2023-10-26T23:46:01.542Z" agent="Mozilla/5.0 (Windows NT 10.0; Win64; x64) AppleWebKit/537.36 (KHTML, like Gecko) Chrome/118.0.0.0 Safari/537.36" etag="9h1R3Z3r6tVFiIyZvxbN" version="22.0.8" type="github">
  <diagram id="kgpKYQtTHZ0yAKxKKP6v" name="Page-1">
    <mxGraphModel dx="2017" dy="1710" grid="1" gridSize="10" guides="1" tooltips="1" connect="1" arrows="1" fold="1" page="1" pageScale="1" pageWidth="850" pageHeight="1100" math="0" shadow="0">
      <root>
        <mxCell id="0" />
        <mxCell id="1" parent="0" />
        <mxCell id="FTafQwh7pdxVt-59DUpK-1" value="deal cards" style="shape=process;whiteSpace=wrap;html=1;backgroundOutline=1;" vertex="1" parent="1">
          <mxGeometry x="-295.5" y="-230" width="120" height="60" as="geometry" />
        </mxCell>
        <mxCell id="FTafQwh7pdxVt-59DUpK-2" value="Shuffle deck &amp;amp; face values" style="shape=process;whiteSpace=wrap;html=1;backgroundOutline=1;" vertex="1" parent="1">
          <mxGeometry x="-295.5" y="-305" width="120" height="60" as="geometry" />
        </mxCell>
        <mxCell id="FTafQwh7pdxVt-59DUpK-3" value="Mark Sort" style="shape=process;whiteSpace=wrap;html=1;backgroundOutline=1;" vertex="1" parent="1">
          <mxGeometry x="-295.5" y="-4" width="120" height="60" as="geometry" />
        </mxCell>
        <mxCell id="FTafQwh7pdxVt-59DUpK-4" value="" style="group" vertex="1" connectable="0" parent="1">
          <mxGeometry x="-60" y="-320" width="323.5" height="541" as="geometry" />
        </mxCell>
        <mxCell id="FTafQwh7pdxVt-59DUpK-5" value="swap &lt;br&gt;show[i] &amp;amp; show[n]" style="rounded=0;whiteSpace=wrap;html=1;" vertex="1" parent="FTafQwh7pdxVt-59DUpK-4">
          <mxGeometry x="170" y="400" width="120" height="60" as="geometry" />
        </mxCell>
        <mxCell id="FTafQwh7pdxVt-59DUpK-6" value="swap&lt;br&gt;deck[i] &amp;amp; deck[n]" style="rounded=0;whiteSpace=wrap;html=1;" vertex="1" parent="FTafQwh7pdxVt-59DUpK-4">
          <mxGeometry x="170" y="320.5" width="120" height="60" as="geometry" />
        </mxCell>
        <mxCell id="FTafQwh7pdxVt-59DUpK-7" value="loop run 52 times?" style="rhombus;whiteSpace=wrap;html=1;" vertex="1" parent="FTafQwh7pdxVt-59DUpK-4">
          <mxGeometry x="155" y="140.5" width="150" height="80" as="geometry" />
        </mxCell>
        <mxCell id="FTafQwh7pdxVt-59DUpK-8" value="Start Shuffle" style="ellipse;whiteSpace=wrap;html=1;" vertex="1" parent="FTafQwh7pdxVt-59DUpK-4">
          <mxGeometry x="170" width="120" height="40" as="geometry" />
        </mxCell>
        <mxCell id="FTafQwh7pdxVt-59DUpK-9" value="End Shuffle" style="ellipse;whiteSpace=wrap;html=1;" vertex="1" parent="FTafQwh7pdxVt-59DUpK-4">
          <mxGeometry y="160.5" width="120" height="40" as="geometry" />
        </mxCell>
        <mxCell id="FTafQwh7pdxVt-59DUpK-10" value="" style="endArrow=classic;html=1;rounded=0;exitX=0.5;exitY=1;exitDx=0;exitDy=0;entryX=0.5;entryY=0;entryDx=0;entryDy=0;" edge="1" parent="FTafQwh7pdxVt-59DUpK-4" source="FTafQwh7pdxVt-59DUpK-8" target="FTafQwh7pdxVt-59DUpK-7">
          <mxGeometry width="50" height="50" relative="1" as="geometry">
            <mxPoint x="410" y="160.5" as="sourcePoint" />
            <mxPoint x="460" y="110.5" as="targetPoint" />
          </mxGeometry>
        </mxCell>
        <mxCell id="FTafQwh7pdxVt-59DUpK-11" value="" style="endArrow=classic;html=1;rounded=0;exitX=0.5;exitY=1;exitDx=0;exitDy=0;" edge="1" parent="FTafQwh7pdxVt-59DUpK-4" source="FTafQwh7pdxVt-59DUpK-18" target="FTafQwh7pdxVt-59DUpK-6">
          <mxGeometry width="50" height="50" relative="1" as="geometry">
            <mxPoint x="410" y="430.5" as="sourcePoint" />
            <mxPoint x="460" y="380.5" as="targetPoint" />
          </mxGeometry>
        </mxCell>
        <mxCell id="FTafQwh7pdxVt-59DUpK-12" value="" style="endArrow=classic;html=1;rounded=0;exitX=0;exitY=0.5;exitDx=0;exitDy=0;entryX=1;entryY=0.5;entryDx=0;entryDy=0;" edge="1" parent="FTafQwh7pdxVt-59DUpK-4" source="FTafQwh7pdxVt-59DUpK-7" target="FTafQwh7pdxVt-59DUpK-9">
          <mxGeometry width="50" height="50" relative="1" as="geometry">
            <mxPoint x="360" y="310.5" as="sourcePoint" />
            <mxPoint x="410" y="260.5" as="targetPoint" />
          </mxGeometry>
        </mxCell>
        <mxCell id="FTafQwh7pdxVt-59DUpK-13" value="" style="endArrow=classic;html=1;rounded=0;exitX=0.5;exitY=1;exitDx=0;exitDy=0;entryX=0.5;entryY=0;entryDx=0;entryDy=0;" edge="1" parent="FTafQwh7pdxVt-59DUpK-4" source="FTafQwh7pdxVt-59DUpK-6" target="FTafQwh7pdxVt-59DUpK-5">
          <mxGeometry width="50" height="50" relative="1" as="geometry">
            <mxPoint x="390" y="490.5" as="sourcePoint" />
            <mxPoint x="440" y="440.5" as="targetPoint" />
          </mxGeometry>
        </mxCell>
        <mxCell id="FTafQwh7pdxVt-59DUpK-14" value="" style="endArrow=classic;html=1;rounded=0;exitX=1;exitY=0.5;exitDx=0;exitDy=0;entryX=1;entryY=0.5;entryDx=0;entryDy=0;" edge="1" parent="FTafQwh7pdxVt-59DUpK-4" source="FTafQwh7pdxVt-59DUpK-19" target="FTafQwh7pdxVt-59DUpK-7">
          <mxGeometry width="50" height="50" relative="1" as="geometry">
            <mxPoint x="305" y="700.5" as="sourcePoint" />
            <mxPoint x="480" y="570.5" as="targetPoint" />
            <Array as="points">
              <mxPoint x="320.5" y="511.5" />
              <mxPoint x="323.5" y="180.5" />
            </Array>
          </mxGeometry>
        </mxCell>
        <mxCell id="FTafQwh7pdxVt-59DUpK-15" value="Yes" style="text;html=1;strokeColor=none;fillColor=none;align=center;verticalAlign=middle;whiteSpace=wrap;rounded=0;" vertex="1" parent="FTafQwh7pdxVt-59DUpK-4">
          <mxGeometry x="110" y="150.5" width="60" height="30" as="geometry" />
        </mxCell>
        <mxCell id="FTafQwh7pdxVt-59DUpK-16" value="No" style="text;html=1;strokeColor=none;fillColor=none;align=center;verticalAlign=middle;whiteSpace=wrap;rounded=0;" vertex="1" parent="FTafQwh7pdxVt-59DUpK-4">
          <mxGeometry x="219" y="216.5" width="60" height="30" as="geometry" />
        </mxCell>
        <mxCell id="FTafQwh7pdxVt-59DUpK-17" value="" style="endArrow=classic;html=1;rounded=0;exitX=0.5;exitY=1;exitDx=0;exitDy=0;" edge="1" parent="FTafQwh7pdxVt-59DUpK-4" source="FTafQwh7pdxVt-59DUpK-7" target="FTafQwh7pdxVt-59DUpK-18">
          <mxGeometry width="50" height="50" relative="1" as="geometry">
            <mxPoint x="230" y="185.5" as="sourcePoint" />
            <mxPoint x="230" y="340.5" as="targetPoint" />
          </mxGeometry>
        </mxCell>
        <mxCell id="FTafQwh7pdxVt-59DUpK-18" value="n = i(rand)" style="rounded=0;whiteSpace=wrap;html=1;" vertex="1" parent="FTafQwh7pdxVt-59DUpK-4">
          <mxGeometry x="170" y="240" width="120" height="60" as="geometry" />
        </mxCell>
        <mxCell id="FTafQwh7pdxVt-59DUpK-19" value="increment i" style="rounded=0;whiteSpace=wrap;html=1;" vertex="1" parent="FTafQwh7pdxVt-59DUpK-4">
          <mxGeometry x="170" y="481" width="120" height="60" as="geometry" />
        </mxCell>
        <mxCell id="FTafQwh7pdxVt-59DUpK-20" value="" style="endArrow=classic;html=1;rounded=0;exitX=0.5;exitY=1;exitDx=0;exitDy=0;entryX=0.5;entryY=0;entryDx=0;entryDy=0;" edge="1" parent="FTafQwh7pdxVt-59DUpK-4" source="FTafQwh7pdxVt-59DUpK-5" target="FTafQwh7pdxVt-59DUpK-19">
          <mxGeometry width="50" height="50" relative="1" as="geometry">
            <mxPoint x="80.5" y="526.5" as="sourcePoint" />
            <mxPoint x="130.5" y="476.5" as="targetPoint" />
          </mxGeometry>
        </mxCell>
        <mxCell id="FTafQwh7pdxVt-59DUpK-21" value="" style="group" vertex="1" connectable="0" parent="1">
          <mxGeometry x="1210" y="-1070" width="465" height="643" as="geometry" />
        </mxCell>
        <mxCell id="FTafQwh7pdxVt-59DUpK-22" value="set value i to to temp&lt;br&gt;aka original value J&lt;br&gt;(hand values)" style="rounded=0;whiteSpace=wrap;html=1;container=0;" vertex="1" parent="FTafQwh7pdxVt-59DUpK-21">
          <mxGeometry x="345" y="583" width="120" height="60" as="geometry" />
        </mxCell>
        <mxCell id="FTafQwh7pdxVt-59DUpK-23" value="create temp&lt;br&gt;store value J&lt;br&gt;(face values)" style="rounded=0;whiteSpace=wrap;html=1;container=0;" vertex="1" parent="FTafQwh7pdxVt-59DUpK-21">
          <mxGeometry x="174" y="583" width="120" height="60" as="geometry" />
        </mxCell>
        <mxCell id="FTafQwh7pdxVt-59DUpK-24" value="value j &amp;gt; value i?" style="rhombus;whiteSpace=wrap;html=1;container=0;" vertex="1" parent="FTafQwh7pdxVt-59DUpK-21">
          <mxGeometry x="159" y="415" width="150" height="80" as="geometry" />
        </mxCell>
        <mxCell id="FTafQwh7pdxVt-59DUpK-25" value="create temp&lt;br&gt;store J value&lt;br&gt;(hand values)" style="rounded=0;whiteSpace=wrap;html=1;container=0;" vertex="1" parent="FTafQwh7pdxVt-59DUpK-21">
          <mxGeometry x="345" y="425" width="120" height="60" as="geometry" />
        </mxCell>
        <mxCell id="FTafQwh7pdxVt-59DUpK-26" value="set value J&lt;br&gt;to value i&lt;br&gt;(hand values)" style="rounded=0;whiteSpace=wrap;html=1;container=0;" vertex="1" parent="FTafQwh7pdxVt-59DUpK-21">
          <mxGeometry x="345" y="504" width="120" height="60" as="geometry" />
        </mxCell>
        <mxCell id="FTafQwh7pdxVt-59DUpK-27" value="set value J&lt;br&gt;to value i&lt;br&gt;(face values)" style="rounded=0;whiteSpace=wrap;html=1;container=0;" vertex="1" parent="FTafQwh7pdxVt-59DUpK-21">
          <mxGeometry y="583" width="120" height="60" as="geometry" />
        </mxCell>
        <mxCell id="FTafQwh7pdxVt-59DUpK-28" value="set value i to temp&lt;br&gt;aka original value 1&lt;br&gt;(face values)" style="rounded=0;whiteSpace=wrap;html=1;container=0;" vertex="1" parent="FTafQwh7pdxVt-59DUpK-21">
          <mxGeometry y="504" width="120" height="60" as="geometry" />
        </mxCell>
        <mxCell id="FTafQwh7pdxVt-59DUpK-29" value="Start mSort" style="ellipse;whiteSpace=wrap;html=1;container=0;" vertex="1" parent="FTafQwh7pdxVt-59DUpK-21">
          <mxGeometry x="174" width="120" height="40" as="geometry" />
        </mxCell>
        <mxCell id="FTafQwh7pdxVt-59DUpK-30" value="End mSort" style="ellipse;whiteSpace=wrap;html=1;container=0;" vertex="1" parent="FTafQwh7pdxVt-59DUpK-21">
          <mxGeometry y="158" width="120" height="40" as="geometry" />
        </mxCell>
        <mxCell id="FTafQwh7pdxVt-59DUpK-31" value="int i &amp;lt; 13?" style="rhombus;whiteSpace=wrap;html=1;container=0;" vertex="1" parent="FTafQwh7pdxVt-59DUpK-21">
          <mxGeometry x="159" y="315.5" width="150" height="80" as="geometry" />
        </mxCell>
        <mxCell id="FTafQwh7pdxVt-59DUpK-32" value="j = 0" style="rounded=0;whiteSpace=wrap;html=1;container=0;" vertex="1" parent="FTafQwh7pdxVt-59DUpK-21">
          <mxGeometry x="174" y="62.5" width="120" height="60" as="geometry" />
        </mxCell>
        <mxCell id="FTafQwh7pdxVt-59DUpK-33" value="(loop ends)&lt;br&gt;increment i" style="rounded=0;whiteSpace=wrap;html=1;container=0;" vertex="1" parent="FTafQwh7pdxVt-59DUpK-21">
          <mxGeometry y="325.5" width="120" height="60" as="geometry" />
        </mxCell>
        <mxCell id="FTafQwh7pdxVt-59DUpK-34" value="(loop ends)&lt;br&gt;increment j" style="rounded=0;whiteSpace=wrap;html=1;container=0;" vertex="1" parent="FTafQwh7pdxVt-59DUpK-21">
          <mxGeometry x="345" y="237.5" width="120" height="60" as="geometry" />
        </mxCell>
        <mxCell id="FTafQwh7pdxVt-59DUpK-35" value="j &amp;lt; 13?" style="rhombus;whiteSpace=wrap;html=1;container=0;" vertex="1" parent="FTafQwh7pdxVt-59DUpK-21">
          <mxGeometry x="159" y="138" width="150" height="80" as="geometry" />
        </mxCell>
        <mxCell id="FTafQwh7pdxVt-59DUpK-36" value="i = 0" style="rounded=0;whiteSpace=wrap;html=1;container=0;" vertex="1" parent="FTafQwh7pdxVt-59DUpK-21">
          <mxGeometry x="174" y="237.5" width="120" height="60" as="geometry" />
        </mxCell>
        <mxCell id="FTafQwh7pdxVt-59DUpK-37" value="" style="endArrow=classic;html=1;rounded=0;exitX=0;exitY=0.5;exitDx=0;exitDy=0;entryX=0.5;entryY=1;entryDx=0;entryDy=0;" edge="1" parent="FTafQwh7pdxVt-59DUpK-21" source="FTafQwh7pdxVt-59DUpK-24" target="FTafQwh7pdxVt-59DUpK-33">
          <mxGeometry width="50" height="50" relative="1" as="geometry">
            <mxPoint x="-30" y="651" as="sourcePoint" />
            <mxPoint x="20" y="601" as="targetPoint" />
            <Array as="points">
              <mxPoint x="60" y="455" />
            </Array>
          </mxGeometry>
        </mxCell>
        <mxCell id="FTafQwh7pdxVt-59DUpK-38" value="" style="endArrow=classic;html=1;rounded=0;exitX=1;exitY=0.5;exitDx=0;exitDy=0;entryX=0.5;entryY=1;entryDx=0;entryDy=0;" edge="1" parent="FTafQwh7pdxVt-59DUpK-21" source="FTafQwh7pdxVt-59DUpK-31" target="FTafQwh7pdxVt-59DUpK-34">
          <mxGeometry width="50" height="50" relative="1" as="geometry">
            <mxPoint x="360" y="381" as="sourcePoint" />
            <mxPoint x="410" y="331" as="targetPoint" />
            <Array as="points">
              <mxPoint x="405" y="356" />
            </Array>
          </mxGeometry>
        </mxCell>
        <mxCell id="FTafQwh7pdxVt-59DUpK-39" value="" style="endArrow=classic;html=1;rounded=0;exitX=0.5;exitY=1;exitDx=0;exitDy=0;entryX=0.5;entryY=0;entryDx=0;entryDy=0;" edge="1" parent="FTafQwh7pdxVt-59DUpK-21" source="FTafQwh7pdxVt-59DUpK-29" target="FTafQwh7pdxVt-59DUpK-32">
          <mxGeometry width="50" height="50" relative="1" as="geometry">
            <mxPoint x="-60" y="381" as="sourcePoint" />
            <mxPoint x="-10" y="331" as="targetPoint" />
          </mxGeometry>
        </mxCell>
        <mxCell id="FTafQwh7pdxVt-59DUpK-40" value="" style="endArrow=classic;html=1;rounded=0;exitX=0.5;exitY=1;exitDx=0;exitDy=0;entryX=0.5;entryY=0;entryDx=0;entryDy=0;" edge="1" parent="FTafQwh7pdxVt-59DUpK-21" source="FTafQwh7pdxVt-59DUpK-32" target="FTafQwh7pdxVt-59DUpK-35">
          <mxGeometry width="50" height="50" relative="1" as="geometry">
            <mxPoint x="-180" y="331" as="sourcePoint" />
            <mxPoint x="-130" y="281" as="targetPoint" />
          </mxGeometry>
        </mxCell>
        <mxCell id="FTafQwh7pdxVt-59DUpK-41" value="" style="endArrow=classic;html=1;rounded=0;exitX=0.5;exitY=1;exitDx=0;exitDy=0;" edge="1" parent="FTafQwh7pdxVt-59DUpK-21" source="FTafQwh7pdxVt-59DUpK-35" target="FTafQwh7pdxVt-59DUpK-36">
          <mxGeometry width="50" height="50" relative="1" as="geometry">
            <mxPoint x="-120" y="351" as="sourcePoint" />
            <mxPoint x="-70" y="301" as="targetPoint" />
          </mxGeometry>
        </mxCell>
        <mxCell id="FTafQwh7pdxVt-59DUpK-42" value="" style="endArrow=classic;html=1;rounded=0;exitX=1;exitY=0.5;exitDx=0;exitDy=0;entryX=0;entryY=0.5;entryDx=0;entryDy=0;" edge="1" parent="FTafQwh7pdxVt-59DUpK-21" source="FTafQwh7pdxVt-59DUpK-24" target="FTafQwh7pdxVt-59DUpK-25">
          <mxGeometry width="50" height="50" relative="1" as="geometry">
            <mxPoint x="-150" y="581" as="sourcePoint" />
            <mxPoint x="-100" y="531" as="targetPoint" />
          </mxGeometry>
        </mxCell>
        <mxCell id="FTafQwh7pdxVt-59DUpK-43" value="" style="endArrow=classic;html=1;rounded=0;exitX=0.5;exitY=1;exitDx=0;exitDy=0;entryX=0.5;entryY=0;entryDx=0;entryDy=0;" edge="1" parent="FTafQwh7pdxVt-59DUpK-21" source="FTafQwh7pdxVt-59DUpK-25" target="FTafQwh7pdxVt-59DUpK-26">
          <mxGeometry width="50" height="50" relative="1" as="geometry">
            <mxPoint x="220" y="561" as="sourcePoint" />
            <mxPoint x="270" y="511" as="targetPoint" />
          </mxGeometry>
        </mxCell>
        <mxCell id="FTafQwh7pdxVt-59DUpK-44" value="" style="endArrow=classic;html=1;rounded=0;exitX=0.5;exitY=1;exitDx=0;exitDy=0;" edge="1" parent="FTafQwh7pdxVt-59DUpK-21" source="FTafQwh7pdxVt-59DUpK-26" target="FTafQwh7pdxVt-59DUpK-22">
          <mxGeometry width="50" height="50" relative="1" as="geometry">
            <mxPoint x="210" y="601" as="sourcePoint" />
            <mxPoint x="260" y="551" as="targetPoint" />
          </mxGeometry>
        </mxCell>
        <mxCell id="FTafQwh7pdxVt-59DUpK-45" value="" style="endArrow=classic;html=1;rounded=0;exitX=0;exitY=0.5;exitDx=0;exitDy=0;entryX=1;entryY=0.5;entryDx=0;entryDy=0;" edge="1" parent="FTafQwh7pdxVt-59DUpK-21" source="FTafQwh7pdxVt-59DUpK-22" target="FTafQwh7pdxVt-59DUpK-23">
          <mxGeometry width="50" height="50" relative="1" as="geometry">
            <mxPoint x="160" y="591" as="sourcePoint" />
            <mxPoint x="210" y="541" as="targetPoint" />
          </mxGeometry>
        </mxCell>
        <mxCell id="FTafQwh7pdxVt-59DUpK-46" value="" style="endArrow=classic;html=1;rounded=0;exitX=0;exitY=0.5;exitDx=0;exitDy=0;" edge="1" parent="FTafQwh7pdxVt-59DUpK-21" source="FTafQwh7pdxVt-59DUpK-23" target="FTafQwh7pdxVt-59DUpK-27">
          <mxGeometry width="50" height="50" relative="1" as="geometry">
            <mxPoint x="290" y="581" as="sourcePoint" />
            <mxPoint x="340" y="531" as="targetPoint" />
          </mxGeometry>
        </mxCell>
        <mxCell id="FTafQwh7pdxVt-59DUpK-47" value="" style="endArrow=classic;html=1;rounded=0;exitX=0.5;exitY=0;exitDx=0;exitDy=0;entryX=0.5;entryY=1;entryDx=0;entryDy=0;" edge="1" parent="FTafQwh7pdxVt-59DUpK-21" source="FTafQwh7pdxVt-59DUpK-27" target="FTafQwh7pdxVt-59DUpK-28">
          <mxGeometry width="50" height="50" relative="1" as="geometry">
            <mxPoint x="180" y="571" as="sourcePoint" />
            <mxPoint x="230" y="521" as="targetPoint" />
          </mxGeometry>
        </mxCell>
        <mxCell id="FTafQwh7pdxVt-59DUpK-48" value="" style="endArrow=classic;html=1;rounded=0;exitX=0.5;exitY=0;exitDx=0;exitDy=0;" edge="1" parent="FTafQwh7pdxVt-59DUpK-21" source="FTafQwh7pdxVt-59DUpK-28">
          <mxGeometry width="50" height="50" relative="1" as="geometry">
            <mxPoint x="170" y="611" as="sourcePoint" />
            <mxPoint x="60" y="451" as="targetPoint" />
          </mxGeometry>
        </mxCell>
        <mxCell id="FTafQwh7pdxVt-59DUpK-49" value="" style="endArrow=classic;html=1;rounded=0;exitX=0.5;exitY=1;exitDx=0;exitDy=0;entryX=0.5;entryY=0;entryDx=0;entryDy=0;" edge="1" parent="FTafQwh7pdxVt-59DUpK-21" source="FTafQwh7pdxVt-59DUpK-36" target="FTafQwh7pdxVt-59DUpK-31">
          <mxGeometry width="50" height="50" relative="1" as="geometry">
            <mxPoint x="-120" y="321" as="sourcePoint" />
            <mxPoint x="-70" y="271" as="targetPoint" />
          </mxGeometry>
        </mxCell>
        <mxCell id="FTafQwh7pdxVt-59DUpK-50" value="" style="endArrow=classic;html=1;rounded=0;exitX=0.5;exitY=1;exitDx=0;exitDy=0;entryX=0.5;entryY=0;entryDx=0;entryDy=0;" edge="1" parent="FTafQwh7pdxVt-59DUpK-21" source="FTafQwh7pdxVt-59DUpK-31" target="FTafQwh7pdxVt-59DUpK-24">
          <mxGeometry width="50" height="50" relative="1" as="geometry">
            <mxPoint x="-170" y="461" as="sourcePoint" />
            <mxPoint x="-120" y="411" as="targetPoint" />
          </mxGeometry>
        </mxCell>
        <mxCell id="FTafQwh7pdxVt-59DUpK-51" value="" style="endArrow=classic;html=1;rounded=0;exitX=0;exitY=0.5;exitDx=0;exitDy=0;entryX=1;entryY=0.5;entryDx=0;entryDy=0;" edge="1" parent="FTafQwh7pdxVt-59DUpK-21" source="FTafQwh7pdxVt-59DUpK-35" target="FTafQwh7pdxVt-59DUpK-30">
          <mxGeometry width="50" height="50" relative="1" as="geometry">
            <mxPoint x="-130" y="381" as="sourcePoint" />
            <mxPoint x="-80" y="331" as="targetPoint" />
          </mxGeometry>
        </mxCell>
        <mxCell id="FTafQwh7pdxVt-59DUpK-52" value="" style="endArrow=classic;html=1;rounded=0;exitX=0.5;exitY=0;exitDx=0;exitDy=0;entryX=1;entryY=0.5;entryDx=0;entryDy=0;" edge="1" parent="FTafQwh7pdxVt-59DUpK-21" source="FTafQwh7pdxVt-59DUpK-34" target="FTafQwh7pdxVt-59DUpK-35">
          <mxGeometry width="50" height="50" relative="1" as="geometry">
            <mxPoint x="560" y="321" as="sourcePoint" />
            <mxPoint x="610" y="271" as="targetPoint" />
            <Array as="points">
              <mxPoint x="405" y="178" />
            </Array>
          </mxGeometry>
        </mxCell>
        <mxCell id="FTafQwh7pdxVt-59DUpK-53" value="" style="endArrow=classic;html=1;rounded=0;exitX=1;exitY=0.5;exitDx=0;exitDy=0;entryX=0;entryY=0.5;entryDx=0;entryDy=0;" edge="1" parent="FTafQwh7pdxVt-59DUpK-21" source="FTafQwh7pdxVt-59DUpK-33" target="FTafQwh7pdxVt-59DUpK-31">
          <mxGeometry width="50" height="50" relative="1" as="geometry">
            <mxPoint x="20" y="421" as="sourcePoint" />
            <mxPoint x="70" y="371" as="targetPoint" />
          </mxGeometry>
        </mxCell>
        <mxCell id="FTafQwh7pdxVt-59DUpK-54" value="Yes" style="text;html=1;strokeColor=none;fillColor=none;align=center;verticalAlign=middle;whiteSpace=wrap;rounded=0;container=0;" vertex="1" parent="FTafQwh7pdxVt-59DUpK-21">
          <mxGeometry x="285" y="428.5" width="60" height="30" as="geometry" />
        </mxCell>
        <mxCell id="FTafQwh7pdxVt-59DUpK-55" value="No" style="text;html=1;strokeColor=none;fillColor=none;align=center;verticalAlign=middle;whiteSpace=wrap;rounded=0;container=0;" vertex="1" parent="FTafQwh7pdxVt-59DUpK-21">
          <mxGeometry x="80" y="428.5" width="60" height="30" as="geometry" />
        </mxCell>
        <mxCell id="FTafQwh7pdxVt-59DUpK-56" value="No" style="text;html=1;strokeColor=none;fillColor=none;align=center;verticalAlign=middle;whiteSpace=wrap;rounded=0;container=0;" vertex="1" parent="FTafQwh7pdxVt-59DUpK-21">
          <mxGeometry x="294" y="330" width="60" height="30" as="geometry" />
        </mxCell>
        <mxCell id="FTafQwh7pdxVt-59DUpK-57" value="No" style="text;html=1;strokeColor=none;fillColor=none;align=center;verticalAlign=middle;whiteSpace=wrap;rounded=0;container=0;" vertex="1" parent="FTafQwh7pdxVt-59DUpK-21">
          <mxGeometry x="110" y="153" width="60" height="30" as="geometry" />
        </mxCell>
        <mxCell id="FTafQwh7pdxVt-59DUpK-58" value="Yes" style="text;html=1;strokeColor=none;fillColor=none;align=center;verticalAlign=middle;whiteSpace=wrap;rounded=0;container=0;" vertex="1" parent="FTafQwh7pdxVt-59DUpK-21">
          <mxGeometry x="180" y="390.5" width="60" height="30" as="geometry" />
        </mxCell>
        <mxCell id="FTafQwh7pdxVt-59DUpK-59" value="Yes" style="text;html=1;strokeColor=none;fillColor=none;align=center;verticalAlign=middle;whiteSpace=wrap;rounded=0;container=0;" vertex="1" parent="FTafQwh7pdxVt-59DUpK-21">
          <mxGeometry x="190" y="210" width="60" height="30" as="geometry" />
        </mxCell>
        <mxCell id="FTafQwh7pdxVt-59DUpK-60" value="" style="group" vertex="1" connectable="0" parent="1">
          <mxGeometry x="800" y="-1018.75" width="310" height="540.5" as="geometry" />
        </mxCell>
        <mxCell id="FTafQwh7pdxVt-59DUpK-61" value="found = false;" style="rounded=0;whiteSpace=wrap;html=1;" vertex="1" parent="FTafQwh7pdxVt-59DUpK-60">
          <mxGeometry x="92" y="62" width="120" height="60" as="geometry" />
        </mxCell>
        <mxCell id="FTafQwh7pdxVt-59DUpK-62" value="Yes" style="text;html=1;strokeColor=none;fillColor=none;align=center;verticalAlign=middle;whiteSpace=wrap;rounded=0;" vertex="1" parent="FTafQwh7pdxVt-59DUpK-60">
          <mxGeometry x="190" y="298" width="60" height="30" as="geometry" />
        </mxCell>
        <mxCell id="FTafQwh7pdxVt-59DUpK-63" value="No" style="text;html=1;strokeColor=none;fillColor=none;align=center;verticalAlign=middle;whiteSpace=wrap;rounded=0;" vertex="1" parent="FTafQwh7pdxVt-59DUpK-60">
          <mxGeometry x="60.5" y="305.5" width="60" height="30" as="geometry" />
        </mxCell>
        <mxCell id="FTafQwh7pdxVt-59DUpK-64" style="edgeStyle=orthogonalEdgeStyle;rounded=0;orthogonalLoop=1;jettySize=auto;html=1;exitX=0.5;exitY=1;exitDx=0;exitDy=0;entryX=0.5;entryY=0;entryDx=0;entryDy=0;" edge="1" parent="FTafQwh7pdxVt-59DUpK-60" source="FTafQwh7pdxVt-59DUpK-65" target="FTafQwh7pdxVt-59DUpK-61">
          <mxGeometry relative="1" as="geometry" />
        </mxCell>
        <mxCell id="FTafQwh7pdxVt-59DUpK-65" value="Start linSrch" style="ellipse;whiteSpace=wrap;html=1;" vertex="1" parent="FTafQwh7pdxVt-59DUpK-60">
          <mxGeometry x="92" width="120" height="40" as="geometry" />
        </mxCell>
        <mxCell id="FTafQwh7pdxVt-59DUpK-66" value="End linSrch" style="ellipse;whiteSpace=wrap;html=1;" vertex="1" parent="FTafQwh7pdxVt-59DUpK-60">
          <mxGeometry x="92" y="500.5" width="120" height="40" as="geometry" />
        </mxCell>
        <mxCell id="FTafQwh7pdxVt-59DUpK-67" style="edgeStyle=orthogonalEdgeStyle;rounded=0;orthogonalLoop=1;jettySize=auto;html=1;exitX=0.5;exitY=1;exitDx=0;exitDy=0;entryX=0.5;entryY=0;entryDx=0;entryDy=0;" edge="1" parent="FTafQwh7pdxVt-59DUpK-60" source="FTafQwh7pdxVt-59DUpK-68" target="FTafQwh7pdxVt-59DUpK-66">
          <mxGeometry relative="1" as="geometry" />
        </mxCell>
        <mxCell id="FTafQwh7pdxVt-59DUpK-68" value="return indx" style="rounded=0;whiteSpace=wrap;html=1;" vertex="1" parent="FTafQwh7pdxVt-59DUpK-60">
          <mxGeometry x="92" y="421" width="120" height="60" as="geometry" />
        </mxCell>
        <mxCell id="FTafQwh7pdxVt-59DUpK-69" value="deck[indx] == 1?" style="rhombus;whiteSpace=wrap;html=1;" vertex="1" parent="FTafQwh7pdxVt-59DUpK-60">
          <mxGeometry x="77" y="240" width="150" height="80" as="geometry" />
        </mxCell>
        <mxCell id="FTafQwh7pdxVt-59DUpK-70" style="edgeStyle=orthogonalEdgeStyle;rounded=0;orthogonalLoop=1;jettySize=auto;html=1;exitX=0.5;exitY=1;exitDx=0;exitDy=0;entryX=0.5;entryY=0;entryDx=0;entryDy=0;" edge="1" parent="FTafQwh7pdxVt-59DUpK-60" source="FTafQwh7pdxVt-59DUpK-72" target="FTafQwh7pdxVt-59DUpK-69">
          <mxGeometry relative="1" as="geometry" />
        </mxCell>
        <mxCell id="FTafQwh7pdxVt-59DUpK-71" style="edgeStyle=orthogonalEdgeStyle;rounded=0;orthogonalLoop=1;jettySize=auto;html=1;exitX=1;exitY=0.5;exitDx=0;exitDy=0;entryX=1;entryY=0.5;entryDx=0;entryDy=0;" edge="1" parent="FTafQwh7pdxVt-59DUpK-60" source="FTafQwh7pdxVt-59DUpK-72" target="FTafQwh7pdxVt-59DUpK-68">
          <mxGeometry relative="1" as="geometry">
            <Array as="points">
              <mxPoint x="310" y="180.5" />
              <mxPoint x="310" y="451.5" />
            </Array>
          </mxGeometry>
        </mxCell>
        <mxCell id="FTafQwh7pdxVt-59DUpK-72" value="while &lt;br&gt;indx &amp;lt; 52 &amp;amp;&amp;amp; !found&lt;br&gt;&amp;nbsp;" style="rhombus;whiteSpace=wrap;html=1;" vertex="1" parent="FTafQwh7pdxVt-59DUpK-60">
          <mxGeometry x="77" y="140.5" width="150" height="80" as="geometry" />
        </mxCell>
        <mxCell id="FTafQwh7pdxVt-59DUpK-73" style="edgeStyle=orthogonalEdgeStyle;rounded=0;orthogonalLoop=1;jettySize=auto;html=1;exitX=0.5;exitY=1;exitDx=0;exitDy=0;entryX=0.5;entryY=0;entryDx=0;entryDy=0;" edge="1" parent="FTafQwh7pdxVt-59DUpK-60" source="FTafQwh7pdxVt-59DUpK-61" target="FTafQwh7pdxVt-59DUpK-72">
          <mxGeometry relative="1" as="geometry" />
        </mxCell>
        <mxCell id="FTafQwh7pdxVt-59DUpK-74" style="edgeStyle=orthogonalEdgeStyle;rounded=0;orthogonalLoop=1;jettySize=auto;html=1;exitX=0.5;exitY=1;exitDx=0;exitDy=0;entryX=1;entryY=0.5;entryDx=0;entryDy=0;" edge="1" parent="FTafQwh7pdxVt-59DUpK-60" source="FTafQwh7pdxVt-59DUpK-75" target="FTafQwh7pdxVt-59DUpK-68">
          <mxGeometry relative="1" as="geometry" />
        </mxCell>
        <mxCell id="FTafQwh7pdxVt-59DUpK-75" value="found = true;" style="rounded=0;whiteSpace=wrap;html=1;" vertex="1" parent="FTafQwh7pdxVt-59DUpK-60">
          <mxGeometry x="174" y="335.5" width="120" height="60" as="geometry" />
        </mxCell>
        <mxCell id="FTafQwh7pdxVt-59DUpK-76" style="edgeStyle=orthogonalEdgeStyle;rounded=0;orthogonalLoop=1;jettySize=auto;html=1;exitX=1;exitY=0.5;exitDx=0;exitDy=0;entryX=0.5;entryY=0;entryDx=0;entryDy=0;" edge="1" parent="FTafQwh7pdxVt-59DUpK-60" source="FTafQwh7pdxVt-59DUpK-69" target="FTafQwh7pdxVt-59DUpK-75">
          <mxGeometry relative="1" as="geometry">
            <Array as="points">
              <mxPoint x="234" y="279.5" />
            </Array>
          </mxGeometry>
        </mxCell>
        <mxCell id="FTafQwh7pdxVt-59DUpK-77" style="edgeStyle=orthogonalEdgeStyle;rounded=0;orthogonalLoop=1;jettySize=auto;html=1;exitX=0;exitY=0.5;exitDx=0;exitDy=0;entryX=0;entryY=0.5;entryDx=0;entryDy=0;" edge="1" parent="FTafQwh7pdxVt-59DUpK-60" source="FTafQwh7pdxVt-59DUpK-78" target="FTafQwh7pdxVt-59DUpK-72">
          <mxGeometry relative="1" as="geometry">
            <Array as="points">
              <mxPoint y="365.5" />
              <mxPoint y="180.5" />
            </Array>
          </mxGeometry>
        </mxCell>
        <mxCell id="FTafQwh7pdxVt-59DUpK-78" value="increment indx" style="rounded=0;whiteSpace=wrap;html=1;" vertex="1" parent="FTafQwh7pdxVt-59DUpK-60">
          <mxGeometry x="10" y="335.5" width="120" height="60" as="geometry" />
        </mxCell>
        <mxCell id="FTafQwh7pdxVt-59DUpK-79" style="edgeStyle=orthogonalEdgeStyle;rounded=0;orthogonalLoop=1;jettySize=auto;html=1;exitX=0;exitY=0.5;exitDx=0;exitDy=0;entryX=0.5;entryY=0;entryDx=0;entryDy=0;" edge="1" parent="FTafQwh7pdxVt-59DUpK-60" source="FTafQwh7pdxVt-59DUpK-69" target="FTafQwh7pdxVt-59DUpK-78">
          <mxGeometry relative="1" as="geometry">
            <Array as="points">
              <mxPoint x="70" y="279.5" />
            </Array>
          </mxGeometry>
        </mxCell>
        <mxCell id="FTafQwh7pdxVt-59DUpK-80" value="No" style="text;html=1;strokeColor=none;fillColor=none;align=center;verticalAlign=middle;whiteSpace=wrap;rounded=0;" vertex="1" parent="FTafQwh7pdxVt-59DUpK-60">
          <mxGeometry x="219" y="151" width="60" height="30" as="geometry" />
        </mxCell>
        <mxCell id="FTafQwh7pdxVt-59DUpK-81" value="Yes" style="text;html=1;strokeColor=none;fillColor=none;align=center;verticalAlign=middle;whiteSpace=wrap;rounded=0;" vertex="1" parent="FTafQwh7pdxVt-59DUpK-60">
          <mxGeometry x="99" y="218" width="60" height="30" as="geometry" />
        </mxCell>
        <mxCell id="FTafQwh7pdxVt-59DUpK-82" value="unSet" style="shape=process;whiteSpace=wrap;html=1;backgroundOutline=1;" vertex="1" parent="1">
          <mxGeometry x="360" y="-190" width="120" height="60" as="geometry" />
        </mxCell>
        <mxCell id="FTafQwh7pdxVt-59DUpK-83" value="set" style="shape=process;whiteSpace=wrap;html=1;backgroundOutline=1;" vertex="1" parent="1">
          <mxGeometry x="365" y="-79.5" width="120" height="60" as="geometry" />
        </mxCell>
        <mxCell id="FTafQwh7pdxVt-59DUpK-84" value="playCard(Larry)" style="shape=process;whiteSpace=wrap;html=1;backgroundOutline=1;" vertex="1" parent="1">
          <mxGeometry x="365" width="120" height="60" as="geometry" />
        </mxCell>
        <mxCell id="FTafQwh7pdxVt-59DUpK-85" value="played(Player)" style="shape=process;whiteSpace=wrap;html=1;backgroundOutline=1;" vertex="1" parent="1">
          <mxGeometry x="365" y="80" width="120" height="60" as="geometry" />
        </mxCell>
      </root>
    </mxGraphModel>
  </diagram>
</mxfile>
